HIERARCHY
ROOT HipCenter
{
    OFFSET 0.0 0.0 -0.0
    CHANNELS 6 Xposition Yposition Zposition Zrotation Xrotation Yrotation
    JOINT Spine
    {
        OFFSET 0.0 11.217731475830078 0.0
        CHANNELS 3 Zrotation Xrotation Yrotation
        JOINT ShoulderCenter
        {
            OFFSET 0.0 30.4871826171875 0.0
            CHANNELS 3 Zrotation Xrotation Yrotation
            JOINT LeftShoulder
            {
                OFFSET 19.478282928466797 0.0 0.0
                CHANNELS 3 Zrotation Xrotation Yrotation
                JOINT LeftElbow
                {
                    OFFSET 28.739818572998047 0.0 0.0
                    CHANNELS 3 Zrotation Xrotation Yrotation
                    JOINT LeftWrist
                    {
                        OFFSET 27.810169219970703 0.0 0.0
                        CHANNELS 3 Zrotation Xrotation Yrotation
                        JOINT LeftHand
                        {
                            OFFSET 3.695187568664551 0.0 0.0
                            CHANNELS 3 Zrotation Xrotation Yrotation
                            End Site
                            {
                                OFFSET 1.4780752658843994 0.0 0.0
                            }
                        }
                    }
                }
            }
            JOINT RightShoulder
            {
                OFFSET -19.478282928466797 0.0 0.0
                CHANNELS 3 Zrotation Xrotation Yrotation
                JOINT RightElbow
                {
                    OFFSET -28.739818572998047 0.0 0.0
                    CHANNELS 3 Zrotation Xrotation Yrotation
                    JOINT RightWrist
                    {
                        OFFSET -27.810169219970703 0.0 0.0
                        CHANNELS 3 Zrotation Xrotation Yrotation
                        JOINT RightHand
                        {
                            OFFSET -3.695187568664551 0.0 0.0
                            CHANNELS 3 Zrotation Xrotation Yrotation
                            End Site
                            {
                                OFFSET -1.4780752658843994 0.0 0.0
                            }
                        }
                    }
                }
            }
            End Site
            {
                OFFSET 0.0 12.194870948791504 0.0
            }
        }
    }
    JOINT LeftHip
    {
        OFFSET 11.684045791625977 0.0 0.0
        CHANNELS 3 Zrotation Xrotation Yrotation
        JOINT LeftKnee
        {
            OFFSET 0.0 -38.83317565917969 0.0
            CHANNELS 3 Zrotation Xrotation Yrotation
            JOINT LeftAnkle
            {
                OFFSET 0.0 -41.47892761230469 0.0
                CHANNELS 3 Zrotation Xrotation Yrotation
                JOINT LeftFoot
                {
                    OFFSET 0.0 -9.032527923583984 0.0
                    CHANNELS 3 Zrotation Xrotation Yrotation
                    End Site
                    {
                        OFFSET 0.0 0.0 3.613011360168457
                    }
                }
            }
        }
    }
    JOINT RightHip
    {
        OFFSET -11.684045791625977 0.0 0.0
        CHANNELS 3 Zrotation Xrotation Yrotation
        JOINT RightKnee
        {
            OFFSET 0.0 -38.83317565917969 0.0
            CHANNELS 3 Zrotation Xrotation Yrotation
            JOINT RightAnkle
            {
                OFFSET 0.0 -41.47892761230469 0.0
                CHANNELS 3 Zrotation Xrotation Yrotation
                JOINT RightFoot
                {
                    OFFSET 0.0 -9.032527923583984 0.0
                    CHANNELS 3 Zrotation Xrotation Yrotation
                    End Site
                    {
                        OFFSET 0.0 0.0 3.613011360168457
                    }
                }
            }
        }
    }
}
MOTION
Frames: 6
Frame Time: 0.03333333333333333
73.69999694824219 -7.400000095367432 -21.600000381469727 -1.0230536180428893 0.5114762100205354 -166.80184977105742 -0.3639990198599208 6.226008934101074 0.1544917272297189 -3.961396963794847e-09 2.0405791853911914e-08 -7.148463577949822 132.91490763327516 7.858608288430264 -76.74854953156243 1.5142735330310934e-06 -8.906158806437821e-07 30.827808847168615 -179.99998233173747 -84.68795855535004 -118.16503486706203 7.951386703658791e-16 -2.2069531490250793e-32 -3.1805546814635164e-15 -85.79823536605922 -5.752305017175837 69.78038471586139 -2.4030527259421004e-06 -5.965617345966329e-06 -13.827118937265896 -1.110958299117106e-06 53.823258157270594 -80.02292956780957 3.975693351829395e-16 0.0 0.0 8.266464790366951 21.127573274366046 -50.63382862836452 -13.479644109494219 12.106029873275997 -8.622699815681445 53.4317209045192 -9.098121602707122 79.8890689227676 0.0 0.0 0.0 2.390124747054918 -1.3905656566595321 19.630077764467657 10.839329468502433 16.578257217549385 16.814344326591883 -97.36821959503376 -27.993441697880776 -159.5573170991769 -6.3611093629270335e-15 1.7655625192200634e-31 -3.1805546814635168e-15
73.5999984741211 -7.400000095367432 -21.600000381469727 -1.0230146293303326 0.5114762109219435 -166.8018407212651 0.04789850111472488 6.322339526468421 0.11149510394613076 6.111113890010902e-09 3.518981154749447e-07 -7.553028133291461 132.4204807038047 8.070109525485076 -76.47503822333056 -6.639418586809894e-07 3.0042449314473105e-06 29.662201852619823 -179.99997802984578 -84.19315780970146 -119.44992813505243 -6.3611093629270335e-15 8.827812596100317e-32 -1.5902773407317584e-15 -86.4957460325007 -6.0147944952097046 69.67792483152401 -5.30239883788434e-07 -3.6942284416362546e-06 -13.966029082676764 -2.5331476492132e-07 52.08881057340792 -81.31181997981612 8.74652537402467e-15 3.1805546814635168e-15 -2.427648463927587e-31 8.211020278338143 21.486090397828693 -50.8301573836901 -12.856809617945668 11.879341090706816 -8.562116169444234 53.380369935721646 -9.978713817936066 82.3666603348605 -4.373262687012335e-15 -6.069121159818968e-32 1.5902773407317584e-15 2.3566525701215846 -1.5332167200222158 19.435641320863073 10.828636284484075 16.922259428160633 17.18431120920799 -97.47329244330295 -27.786333322557752 -159.7431035648263 7.062250076880254e-31 -6.3611093629270335e-15 1.2722218725854067e-14
73.5 -7.400000095367432 -21.5 -1.023014712233733 0.5114762572272687 -167.27476966085212 0.037201624433323296 6.505068506871108 0.11565298472239212 -2.7091387485564646e-08 2.0072068472644564e-07 -7.365793111232775 131.65771885069196 7.8937301786435645 -76.1625831986425 1.4806851484936264e-06 2.5392911483374063e-07 28.899182890621123 179.99992546751164 -87.54814225075175 -117.04201199414914 -3.1805546814635176e-15 3.1805546814635176e-15 4.770832022195277e-15 -88.67725688601097 -5.07978993127834 69.44649782078677 2.4988803529849136e-06 -7.071127365786752e-07 -14.262438930010571 -6.62606379375309e-06 51.05448919658466 -79.68630279760856 -5.963540027744094e-16 -3.975693351829396e-16 -1.5902773407317584e-15 8.026410580276584 21.552878055788423 -50.870607359251515 -12.967706942704815 11.757837254033515 -8.345116800641245 53.126266807041944 -10.248197610677053 78.96993809766221 -3.975693351829396e-16 -4.138037154422024e-33 1.1927080055488188e-15 2.5119711882069238 -1.545735247245606 19.78879843520103 10.555942207170798 17.101376565170604 17.435627702345435 -96.76048430424966 -27.108729389751606 -159.74760024701635 0.0 0.0 3.1805546814635168e-15
73.4000015258789 -7.299999713897705 -21.5 -0.5115480578816661 0.5115374150906999 -166.69742847851194 1.0130588800350626 6.481781762979819 0.1186311343556677 8.484350836379289e-09 1.1107267600645436e-07 -8.11914887353898 128.39997859539886 7.084260361939296 -75.4626520465548 -2.5649700267168106e-07 7.100569885966235e-06 27.840891598294423 -3.526852640582853e-05 -87.15455118899081 62.864703819656924 3.975693351829396e-15 0.0 0.0 -89.10902839922412 -5.192117789906089 69.29534982505899 -1.1755554872289653e-06 2.6290532357987566e-06 -14.434676135001633 8.241034439122213e-06 51.63903950059671 -81.46797559825279 1.987846675914698e-15 0.0 0.0 8.817386781379065 21.620159523611942 -50.95194402564723 -12.268163796792566 11.341289281536547 -8.242179488035994 52.55121086336614 -10.712338563867881 79.91567787577118 -3.9756933518293955e-16 1.5902773407317582e-15 7.951386703658791e-16 2.8178659440726785 -1.7977863591787604 19.636800467193797 10.657761822683497 17.22452118377344 17.822697618647673 -97.37545313931965 -28.075621243086744 -159.81697808701827 1.7655625192200634e-31 6.361109362927035e-15 -3.1805546814635176e-15
73.29999542236328 -7.299999713897705 -21.5 -1.023053597473025 0.511476241290378 -166.80805731782286 0.1335741602204437 6.6866391727595635 0.16432503286361227 -3.219474872728984e-08 -1.8975948425218617e-07 -8.00622377494067 127.48365883877923 6.4224696958590295 -75.04967163145818 -4.0589459935744566e-06 1.9707345313862915e-06 27.48103958870112 -2.680129532747104e-05 -85.67332657344957 62.51498779776383 -3.1805546814635164e-15 3.1805546814635164e-15 3.1805546814635164e-15 -90.35885936009956 -4.329942929415273 69.54516439630238 -2.4477561132839555e-06 -7.97908032439461e-06 -15.100913409803114 6.1217047289288e-07 51.23917023561119 -79.76579495468404 -5.5659706925611536e-15 -3.9756933518293945e-16 -1.5902773407317582e-15 8.127613449461425 21.793160983431683 -50.27803646480835 -12.164840292587689 11.451497769368784 -8.231682226109683 52.87925072802219 -10.51096063809292 79.86226202719884 2.3854160110976376e-15 2.4828222926532145e-32 1.1927080055488188e-15 2.4658004643047122 -1.7087378498288943 19.624357507408106 10.383889356968046 17.405023231752267 18.081283888966627 -96.69104665319665 -28.590657638287944 -159.0957295827941 0.0 0.0 0.0
73.19999694824219 -7.299999713897705 -21.399999618530273 -1.0230536186618389 9.082151021370097e-09 -166.20881180532803 0.26539545573049317 6.143165951081994 0.12629595463822885 -9.707046137139413e-08 -1.1048316422857615e-07 -8.605744324152386 127.54520576059744 6.385994414142078 -75.23177060979015 4.814538033230058e-06 -5.503022997250064e-06 27.61371738632638 4.135111875090255e-05 -86.76161782755621 59.05385301737225 3.1805546814635168e-15 4.4139062980501586e-32 1.5902773407317584e-15 -91.37776659595451 -4.033617310681022 69.31007049415321 -1.8957375616182755e-06 4.495582752044163e-06 -14.817077980962786 -2.0594701504048664e-06 49.321914097765834 -79.67519454857147 1.5902773407317588e-15 0.0 0.0 8.54527581928341 21.184975979873357 -51.628382565409915 -12.500547660782994 10.851793204022858 -7.856331508458088 51.74123114547791 -10.527536932821448 75.1779359649397 -3.9756933518293955e-16 -1.5902773407317584e-15 2.782985346280577e-15 2.5036533442596336 -2.123046649475734 19.895100919960566 10.169045166728665 17.559672074122357 18.10157421433928 -96.94302447604319 -29.61870911222066 -158.48195568527808 3.1805546814635168e-15 1.7655625192200634e-31 6.3611093629270335e-15
